#!OML:ASF H:\Terrain\Patient Classification 1\Walking\liu\liu.ASF
:FULLY-SPECIFIED
:DEGREES
146
root 8.625040 15.942100 -16.340500 6.333870 8.397660 3.774280
lowerback -67.023804 -33.300499 -44.806900
upperback -11.958700 -41.796196 21.696301
thorax 29.982399 -21.387999 43.660797
lowerneck -191.495987 -58.438301 -138.854996
upperneck 174.414001 -69.092400 129.459000
head 96.345596 -27.926399 58.773598
rclavicle 0.000000 0.000000
rhumerus -482.809998 40.473400 -815.819031
rradius 290.162994
rwrist -154.798004
rhand -286.832001 -226.735992
rfingers 71.250198
rthumb -20.457001 -526.434998
lclavicle 0.000000 0.000000
lhumerus -354.445984 -10.597800 908.570007
lradius 188.876007
lwrist -112.672997
lhand -107.122002 -225.587997
lfingers 71.250198
lthumb 152.977997 68.554504
rfemur -411.341003 20.870701 154.619995
rtibia 394.544006
rfoot -64.095901 -35.953701
rtoes -164.894012
lfemur 278.005005 53.106098 -184.848007
ltibia 0.000000
lfoot 67.651199 -11.947599
ltoes -171.508011
147
root 8.605380 15.978100 -16.180500 6.398540 8.715530 3.501460
lowerback -64.633095 -33.956497 -40.976902
upperback -13.478700 -43.049698 22.329800
thorax 26.980099 -21.883801 42.217999
lowerneck -193.145004 -58.652603 -137.651993
upperneck 176.063004 -69.415497 128.298004
head 97.175903 -28.060301 58.129601
rclavicle -0.000000 0.000000
rhumerus -482.622986 41.534698 -815.836060
rradius 286.692993
rwrist -145.190002
rhand -278.920013 -226.033997
rfingers 71.250198
rthumb -12.815900 -525.792969
lclavicle -0.000000 0.000000
lhumerus -360.325012 4.087990 901.235962
lradius 180.951996
lwrist -110.565994
lhand -105.467995 -227.345001
lfingers 71.250198
lthumb 154.569992 66.675102
rfemur -405.828003 17.593901 160.303986
rtibia 396.186981
rfoot -69.446701 -32.212502
rtoes -168.414001
lfemur 279.269012 53.273804 -179.550003
ltibia 0.000000
lfoot 87.465294 -5.166010
ltoes -167.544998
148
root 8.578980 16.014099 -16.026199 6.404510 9.009990 2.868840
lowerback -63.132599 -33.584599 -34.424500
upperback -13.491600 -43.086098 24.120300
thorax 25.795500 -21.833799 40.482899
lowerneck -195.296997 -59.531597 -137.839996
upperneck 174.144989 -70.366402 129.337997
head 97.098999 -28.327702 58.328598
rclavicle -0.000000 -0.000000
rhumerus -481.996002 41.371399 -814.114014
rradius 286.025024
rwrist -137.673996
rhand -275.895996 -229.097992
rfingers 71.250198
rthumb -9.895130 -528.872986
lclavicle -0.000000 -0.000000
lhumerus -363.306000 12.359500 896.260010
lradius 174.852997
lwrist -109.178001
lhand -103.320000 -225.750000
lfingers 71.250198
lthumb 156.639008 68.109001
rfemur -400.066986 16.088902 169.634003
rtibia 396.535004
rfoot -73.142998 -29.498701
rtoes -167.063004
lfemur 258.419983 55.662598 -169.227997
ltibia 42.250000
lfoot 91.036392 -1.562440
ltoes -150.656998
149
root 8.549080 16.054501 -15.873400 6.497650 9.120450 2.350450
lowerback -64.031700 -32.949799 -29.373400
upperback -12.479300 -42.592503 25.378302
thorax 27.028698 -21.588299 38.920300
lowerneck -199.699005 -60.488098 -137.315994
upperneck 171.375000 -71.311798 130.626007
head 97.119102 -28.439600 58.461399
rclavicle 0.000000 -0.000000
rhumerus -477.449005 36.306301 -808.153992
rradius 285.955994
rwrist -125.695999
rhand -264.472015 -219.269012
rfingers 71.250198
rthumb 1.138700 -519.066040
lclavicle 0.000000 -0.000000
lhumerus -366.408997 21.597500 889.363037
lradius 173.694992
lwrist -116.305000
lhand -78.396202 -208.403000
lfingers 71.250198
lthumb 180.631012 83.408897
rfemur -394.434021 16.401699 177.263000
rtibia 395.057007
rfoot -76.385498 -27.049501
rtoes -155.156006
lfemur 217.315994 61.625599 -159.727997
ltibia 122.740005
lfoot 78.632202 -4.063080
ltoes -145.498993
150
root 8.517350 16.101000 -15.726400 6.724050 9.256230 1.981730
lowerback -64.181702 -33.451801 -26.515301
upperback -13.085400 -43.473202 26.406300
thorax 26.435499 -21.988298 38.308403
lowerneck -201.256012 -60.157501 -136.600998
upperneck 170.312012 -71.066597 131.962997
head 97.028107 -28.083500 58.836899
rclavicle 0.000000 -0.000000
rhumerus -473.493011 37.961498 -808.898010
rradius 284.632996
rwrist -128.186005
rhand -264.403015 -176.587006
rfingers 71.250198
rthumb 1.204450 -476.384003
lclavicle 0.000000 -0.000000
lhumerus -371.153992 33.561699 880.859985
lradius 171.024002
lwrist -127.585999
lhand -44.818501 -189.167999
lfingers 71.250198
lthumb 212.912003 99.336792
rfemur -389.226013 15.152000 183.798996
rtibia 391.971008
rfoot -82.026993 -24.450500
rtoes -147.068008
lfemur 189.204010 65.527405 -153.410004
ltibia 174.958008
lfoot 76.039803 -1.643770
ltoes -134.522995
151
root 8.486580 16.143700 -15.584800 6.854700 9.412000 1.533660
lowerback -61.868000 -33.571899 -23.036001
upperback -14.210800 -43.914497 27.681000
thorax 23.862900 -22.135101 37.807602
lowerneck -201.123993 -60.106201 -135.384995
upperneck 170.845001 -71.412003 131.848999
head 97.191002 -28.177601 58.550102
rclavicle 0.000000 0.000000
rhumerus -470.759003 39.318199 -809.365967
rradius 284.714996
rwrist -130.242996
rhand -280.190002 -227.991013
rfingers 71.250198
rthumb -14.042900 -527.742004
lclavicle 0.000000 0.000000
lhumerus -374.658020 38.023300 876.165039
lradius 166.854996
lwrist -132.871002
lhand -30.246502 -185.477005
lfingers 71.250198
lthumb 226.903000 101.382996
rfemur -382.795990 13.687600 191.399002
rtibia 387.801025
rfoot -87.504501 -21.645300
rtoes -144.194000
lfemur 165.830002 68.611900 -146.628998
ltibia 218.859009
lfoot 75.470299 4.103120
ltoes -111.576004
152
root 8.457140 16.178801 -15.445400 6.938490 9.545760 1.135280
lowerback -59.673901 -32.556801 -19.578899
upperback -14.867701 -42.819298 29.020500
thorax 21.721001 -21.534500 37.505100
lowerneck -202.054001 -61.820999 -136.625000
upperneck 169.873993 -73.419701 132.705002
head 97.418503 -29.068100 58.722603
rclavicle 0.000000 -0.000000
rhumerus -472.526001 50.495399 -819.725037
rradius 288.707001
rwrist -165.881012
rhand -315.497009 -206.190002
rfingers 71.250198
rthumb -48.139603 -505.442993
lclavicle 0.000000 -0.000000
lhumerus -377.769012 31.954998 878.360962
lradius 166.910004
lwrist -128.559998
lhand -29.450600 -190.519012
lfingers 71.250198
lthumb 227.667007 96.247101
rfemur -375.583008 14.611100 197.490997
rtibia 382.566986
rfoot -92.090500 -20.229198
rtoes -136.667007
lfemur 144.085999 71.070900 -140.955002
ltibia 258.308990
lfoot 83.065300 11.923400
ltoes -107.000999
153
root 8.426210 16.216801 -15.309800 7.044990 9.718090 0.841884
lowerback -58.132702 -31.958200 -17.888800
upperback -15.777901 -42.156902 30.862701
thorax 19.887699 -21.166201 38.640499
lowerneck -200.356003 -63.354996 -142.022995
upperneck 166.255005 -74.801796 137.108002
head 96.495201 -29.674700 60.956703
rclavicle -0.000000 0.000000
rhumerus -470.514984 49.090900 -813.551025
rradius 291.069000
rwrist -155.828003
rhand -302.859009 -219.925995
rfingers 71.250198
rthumb -35.935902 -519.421021
lclavicle -0.000000 0.000000
lhumerus -381.101013 26.955299 881.658020
lradius 166.975998
lwrist -128.339996
lhand -37.436401 -194.846985
lfingers 71.250198
lthumb 220.000992 92.840591
rfemur -368.072021 15.446900 202.266998
rtibia 376.591003
rfoot -96.369003 -19.080999
rtoes -127.306992
lfemur 122.524994 72.225502 -137.352005
ltibia 294.988007
lfoot 95.885002 20.140200
ltoes -97.746895
154
root 8.401450 16.260500 -15.175200 7.022460 9.762930 0.593321
lowerback -55.999699 -31.645802 -16.845400
upperback -15.896700 -41.839600 32.407402
thorax 18.592800 -20.991899 39.805302
lowerneck -197.815002 -63.602600 -144.425003
upperneck 163.598007 -74.889099 138.798004
head 95.306999 -29.794100 61.912197
rclavicle 0.000000 -0.000000
rhumerus -468.726990 51.884197 -811.130981
rradius 293.774994
rwrist -158.645996
rhand -303.764984 -233.493988
rfingers 71.250198
rthumb -36.810101 -532.973999
lclavicle 0.000000 -0.000000
lhumerus -385.877991 25.354000 882.388000
lradius 170.816010
lwrist -135.039993
lhand -53.220600 -199.416016
lfingers 71.250198
lthumb 204.839005 89.978905
rfemur -359.322998 15.338699 206.809006
rtibia 370.642029
rfoot -99.476006 -16.672300
rtoes -122.686005
lfemur 103.714996 73.517097 -134.982010
ltibia 328.789001
lfoot 104.615005 30.478302
ltoes -73.559097
155
root 8.378720 16.305099 -15.042500 7.163230 9.787370 0.333367
lowerback -55.768700 -31.078899 -15.030800
upperback -15.892300 -41.203400 33.354801
thorax 18.359200 -20.666298 39.833599
lowerneck -197.626984 -63.881996 -144.317993
upperneck 162.117004 -75.423103 139.841995
head 94.894798 -29.936699 62.152901
rclavicle -0.000000 0.000000
rhumerus -467.167023 57.856300 -813.707947
rradius 298.204010
rwrist -169.365997
rhand -304.808990 -248.938004
rfingers 71.250198
rthumb -37.818501 -548.400024
lclavicle -0.000000 0.000000
lhumerus -391.122009 14.175100 887.404053
lradius 178.707001
lwrist -128.240005
lhand -55.303101 -198.087006
lfingers 71.250198
lthumb 202.837997 91.521103
rfemur -352.575012 15.209599 211.380005
rtibia 364.714020
rfoot -101.254997 -14.113701
rtoes -119.363007
lfemur 84.106300 75.674103 -132.772995
ltibia 359.856995
lfoot 101.903000 43.188301
ltoes -89.651901
